<svg width="166" height="166" viewBox="0 0 166 166" fill="none" xmlns="http://www.w3.org/2000/svg">
<path d="M35.0343 137.39L26.592 151.95L26.592 161H22.7643L22.7643 151.95L14.3577 137.39H18.6147L22.8358 144.974L24.696 148.515L26.5562 144.974L30.7416 137.39H35.0343ZM51.5179 157.709H65.2904V161H47.6903L47.6903 137.39H64.7896V140.681H51.5179V147.478H61.892V150.697H51.5179L51.5179 157.709ZM94.9381 161L92.7202 154.811H82.7754L80.5217 161H76.5867L85.4941 137.39H90.073L98.9804 161H94.9381ZM83.8844 151.699H91.5755L88.8568 144.115L87.7836 140.717H87.6763L86.6746 144.044L83.8844 151.699ZM126.993 161L120.983 151.556H115.904V161L112.112 161V137.39H121.735C126.814 137.39 129.998 140.037 129.998 144.473C129.998 147.871 128.138 150.232 124.99 151.127L131.393 161H126.993ZM115.904 140.645V148.372H121.413C124.525 148.372 126.027 147.12 126.027 144.509C126.027 141.897 124.525 140.645 121.413 140.645H115.904ZM154.398 137.032C158.762 137.032 161.767 138.606 163.841 141.826L160.944 144.437C159.62 141.611 157.796 140.359 154.433 140.359C151.071 140.359 149.246 141.862 149.246 143.865C149.246 145.761 150.713 146.762 155.292 147.585C161.624 148.694 163.949 150.662 163.949 154.454C163.949 158.675 160.121 161.358 154.541 161.358C149.389 161.358 146.206 159.498 144.381 156.564L147.064 153.881C148.602 156.743 150.963 158.031 154.505 158.031C157.867 158.031 159.942 156.85 159.942 154.668C159.942 152.987 158.511 152.021 154.076 151.198C147.601 149.982 145.204 148.015 145.204 144.258C145.204 140.252 148.638 137.032 154.398 137.032Z" fill="white"/>
<path d="M29.568 34.52H43.904V119H26.752V56.024C26.752 55 26.752 53.976 26.88 52.952C20.992 58.2 13.696 62.552 6.272 63.96L3.968 49.112C11.648 48.216 25.216 40.792 29.568 34.52Z" fill="white"/>
<path fill-rule="evenodd" clip-rule="evenodd" d="M140.552 8V34.1749H164.646V51.6427H140.552V76.0915H140.542C140.548 76.3819 140.551 76.6729 140.551 76.9646L140.559 76.9646C140.556 77.1098 140.555 77.2553 140.555 77.4011C140.555 90.6596 151.303 101.408 164.562 101.408C164.708 101.408 164.854 101.406 165 101.404V118.865C164.872 118.866 164.744 118.867 164.616 118.867H164.508C151.224 118.85 139.404 112.587 131.827 102.857C124.013 113.118 111.668 119.74 97.7755 119.74C74.1512 119.74 55 100.589 55 76.9646C55 53.3404 74.1512 34.1891 97.7755 34.1891L97.9173 34.1894L98.0002 34.1897V34.1749H123.093V25.4594C123.093 15.8168 130.909 8 140.552 8ZM72.456 76.5286C72.456 62.788 83.595 51.649 97.3356 51.649H122.215V76.5286C122.215 90.2693 111.076 101.408 97.3356 101.408C83.595 101.408 72.456 90.2693 72.456 76.5286Z" fill="white"/>
<path fill-rule="evenodd" clip-rule="evenodd" d="M140.553 34.1752V8C130.91 8 123.093 15.8169 123.093 25.4596V34.1752H98V34.1901C98.7223 34.1938 99.4404 34.2154 100.154 34.2544H140.533V75.6142C140.538 75.7734 140.542 75.9328 140.545 76.0925H140.553V51.6432H164.647V34.1752H140.553ZM131.829 102.86C137.304 95.6716 140.554 86.6982 140.554 76.9656C140.554 76.9655 140.554 76.9653 140.554 76.9652H140.56C140.558 77.1104 140.557 77.256 140.557 77.4018C140.557 90.6605 151.305 101.409 164.564 101.409C164.71 101.409 164.856 101.407 165.002 101.405V118.866C164.886 118.867 164.771 118.868 164.655 118.868H164.472C151.204 118.84 139.399 112.58 131.829 102.86Z" fill="#C2C2C2"/>
</svg>
