<svg width="103" height="104" viewBox="0 0 103 104" fill="none" xmlns="http://www.w3.org/2000/svg">
<path fill-rule="evenodd" clip-rule="evenodd" d="M79.5867 0V24.35H102V40.6H79.5867V63.3445H79.5786C79.584 63.6145 79.5867 63.8852 79.5867 64.1565H79.5911C79.5887 64.2916 79.5875 64.427 79.5875 64.5626C79.5875 76.8968 89.5863 86.8956 101.921 86.8956C102.056 86.8956 102.191 86.8944 102.327 86.892V103.136C102.191 103.137 102.056 103.138 101.921 103.138C89.5436 103.138 78.528 97.3088 71.4694 88.2462C64.2002 97.79 52.7162 103.95 39.7934 103.95C17.8161 103.95 0 86.1339 0 64.1566C0 42.1794 17.8161 24.3633 39.7934 24.3633L39.911 24.3635L40 24.3638V24.35H63.3445V16.2422C63.3445 7.27187 70.6164 0 79.5867 0ZM16.2422 63.7507C16.2422 50.9681 26.6046 40.6056 39.3873 40.6056H62.5324V63.7507C62.5324 76.5334 52.17 86.8959 39.3873 86.8959C26.6046 86.8959 16.2422 76.5334 16.2422 63.7507Z" fill="white"/>
</svg>
